<?xml version="1.0" encoding="iso-8859-1"?>
<!-- Generator: Adobe Illustrator 19.0.0, SVG Export Plug-In . SVG Version: 6.00 Build 0)  -->
<svg xmlns="http://www.w3.org/2000/svg" xmlns:xlink="http://www.w3.org/1999/xlink" version="1.1" id="Capa_1" x="0px" y="0px" viewBox="0 0 512 512" style="enable-background:new 0 0 512 512;" xml:space="preserve" width="512px" height="512px">
<g>
	<g>
		<path d="M509.978,23.47C507.283,18.842,502.347,16,497,16H15c-5.347,0-10.283,2.842-12.979,7.471    c-2.68,4.629-2.695,10.327-0.043,14.97L50.153,121h411.694l48.175-82.559C512.673,33.797,512.659,28.099,509.978,23.47z" fill="#32c770"/>
	</g>
</g>
<g>
	<g>
		<polygon points="127.295,256 170.151,331 341.849,331 384.705,256   " fill="#32c770"/>
	</g>
</g>
<g>
	<g>
		<polygon points="67.295,151 110.153,226 401.847,226 444.705,151   " fill="#32c770"/>
	</g>
</g>
<g>
	<g>
		<path d="M181,361v120c0,8.291,6.709,15,15,15h120c8.291,0,15-6.709,15-15V361H181z" fill="#32c770"/>
	</g>
</g>
<g>
</g>
<g>
</g>
<g>
</g>
<g>
</g>
<g>
</g>
<g>
</g>
<g>
</g>
<g>
</g>
<g>
</g>
<g>
</g>
<g>
</g>
<g>
</g>
<g>
</g>
<g>
</g>
<g>
</g>
</svg>
