<?xml version="1.0" encoding="iso-8859-1"?>
<!-- Generator: Adobe Illustrator 19.0.0, SVG Export Plug-In . SVG Version: 6.00 Build 0)  -->
<svg xmlns="http://www.w3.org/2000/svg" xmlns:xlink="http://www.w3.org/1999/xlink" version="1.1" id="Capa_1" x="0px" y="0px" viewBox="0 0 51.913 51.913" style="enable-background:new 0 0 51.913 51.913;" xml:space="preserve" width="512px" height="512px">
<path d="M50.957,7c0-4.596-12.577-7-25-7s-25,2.404-25,7c0,1.042,0.652,1.97,1.796,2.784l17.204,23.542v17.525l0.062,1.062h1  l0.457-0.018l10.481-10.481v-8.088L49.16,9.784C50.305,8.97,50.957,8.042,50.957,7z M25.957,2c14.04,0,23,2.961,23,5s-8.96,5-23,5  s-23-2.961-23-5S11.917,2,25.957,2z" fill="#2f9978"/>
<g>
</g>
<g>
</g>
<g>
</g>
<g>
</g>
<g>
</g>
<g>
</g>
<g>
</g>
<g>
</g>
<g>
</g>
<g>
</g>
<g>
</g>
<g>
</g>
<g>
</g>
<g>
</g>
<g>
</g>
</svg>
