<?xml version="1.0" encoding="UTF-8" standalone="no"?>
<!-- Created with Inkscape (http://www.inkscape.org/) -->

<svg
   xmlns:dc="http://purl.org/dc/elements/1.1/"
   xmlns:cc="http://creativecommons.org/ns#"
   xmlns:rdf="http://www.w3.org/1999/02/22-rdf-syntax-ns#"
   xmlns:svg="http://www.w3.org/2000/svg"
   xmlns="http://www.w3.org/2000/svg"
   xmlns:sodipodi="http://sodipodi.sourceforge.net/DTD/sodipodi-0.dtd"
   xmlns:inkscape="http://www.inkscape.org/namespaces/inkscape"
   width="200mm"
   height="240mm"
   viewBox="0 0 200 240"
   version="1.1"
   id="svg8"
   inkscape:version="0.92.1 r15371"
   sodipodi:docname="office.svg">
  <title
     id="title4677">Office</title>
  <defs
     id="defs2">
    <inkscape:perspective
       sodipodi:type="inkscape:persp3d"
       inkscape:vp_x="-41.82334 : 81.026298 : 1"
       inkscape:vp_y="0 : 5510.4893 : 0"
       inkscape:vp_z="246.10001 : 80.697554 : 1"
       inkscape:persp3d-origin="-23.153184 : 253.5247 : 1"
       id="perspective4835" />
    <inkscape:perspective
       sodipodi:type="inkscape:persp3d"
       inkscape:vp_x="6.2808339 : 556.44897 : 1"
       inkscape:vp_y="0 : 3779.5274 : 0"
       inkscape:vp_z="799.98166 : 556.44897 : 1"
       inkscape:persp3d-origin="403.13124 : 369.36236 : 1"
       id="perspective4563" />
    <inkscape:perspective
       sodipodi:type="inkscape:persp3d"
       inkscape:vp_x="-0.15457375 : 121.31046 : 1"
       inkscape:vp_y="0 : 1365.5269 : 0"
       inkscape:vp_z="217.27083 : 121.31046 : 1"
       inkscape:persp3d-origin="108.55813 : 53.716872 : 1"
       id="perspective4561" />
    <inkscape:perspective
       sodipodi:type="inkscape:persp3d"
       inkscape:vp_x="-47.081458 : 82.292413 : 1"
       inkscape:vp_y="0 : 1457.9836 : 0"
       inkscape:vp_z="259.0951 : 82.292413 : 1"
       inkscape:persp3d-origin="106.00682 : 10.122221 : 1"
       id="perspective4485" />
  </defs>
  <sodipodi:namedview
     id="base"
     pagecolor="#ffffff"
     bordercolor="#666666"
     borderopacity="1.0"
     inkscape:pageopacity="0.0"
     inkscape:pageshadow="2"
     inkscape:zoom="0.49511467"
     inkscape:cx="376.65028"
     inkscape:cy="749.72755"
     inkscape:document-units="mm"
     inkscape:current-layer="layer1"
     showgrid="false"
     showguides="false"
     inkscape:measure-start="0,0"
     inkscape:measure-end="0,0"
     objecttolerance="1"
     inkscape:window-width="900"
     inkscape:window-height="1537"
     inkscape:window-x="1912"
     inkscape:window-y="-8"
     inkscape:window-maximized="1"
     inkscape:pagecheckerboard="true">
    <inkscape:grid
       type="xygrid"
       id="grid4545" />
  </sodipodi:namedview>
  <metadata
     id="metadata5">
    <rdf:RDF>
      <cc:Work
         rdf:about="">
        <dc:format>image/svg+xml</dc:format>
        <dc:type
           rdf:resource="http://purl.org/dc/dcmitype/StillImage" />
        <dc:title>Office</dc:title>
      </cc:Work>
    </rdf:RDF>
  </metadata>
  <g
     inkscape:label="Layer 1"
     inkscape:groupmode="layer"
     id="layer1"
     transform="translate(0,-57)">
    <g
       sodipodi:type="inkscape:box3d"
       id="g4837"
       style="opacity:1;fill:#EBBA16;fill-opacity:1;stroke:none;stroke-width:88.5656662;stroke-linecap:round;stroke-linejoin:round;stroke-miterlimit:4;stroke-dasharray:none;stroke-opacity:1"
       inkscape:perspectiveID="#perspective4835"
       inkscape:corner0="-0.62682257 : -0.025845324 : 0 : 1"
       inkscape:corner7="-0.85453045 : -0.032191434 : 0.30009207 : 1">
      <path
         sodipodi:type="inkscape:box3dside"
         id="path4847"
         style="fill:#EBBA16;fill-opacity:1;stroke-width:129.12728882"
         inkscape:box3dsidetype="13"
         d="m 8.206899,229.08315 78.313844,20.52062 107.478897,-22.42892 -79.75818,-3.78836 z"
         points="86.520743,249.60377 193.99964,227.17485 114.24146,223.38649 8.206899,229.08315 " />
    </g>
    <g
       sodipodi:type="inkscape:box3d"
       id="g4487"
       style="opacity:1;fill:#e1ecf8;fill-opacity:1;stroke:#23A24D;stroke-width:23.43300056;stroke-linecap:round;stroke-linejoin:round;stroke-miterlimit:4;stroke-dasharray:none;stroke-opacity:1"
       inkscape:perspectiveID="#perspective4485"
       inkscape:corner0="0.69387369 : 0.14759971 : 0 : 1"
       inkscape:corner7="0.10236223 : 0.034329798 : 0.73409126 : 1">
      <path
         sodipodi:type="inkscape:box3dside"
         id="path4489"
         style="fill:#353564;fill-rule:evenodd;stroke:none;stroke-width:34.16493225;stroke-linejoin:round;stroke-miterlimit:4;stroke-dasharray:none"
         inkscape:box3dsidetype="6"
         d="m 43.296165,130.26932 v 97.49586 l 65.246455,-3.94794 v -68.01815 z"
         points="43.296165,227.76518 108.54262,223.81724 108.54262,155.79909 43.296165,130.26932 " />
      <path
         sodipodi:type="inkscape:box3dside"
         id="path4497"
         style="fill:#afafde;fill-rule:evenodd;stroke:none;stroke-width:34.16493225;stroke-linejoin:round;stroke-miterlimit:4;stroke-dasharray:none"
         inkscape:box3dsidetype="13"
         d="m 43.296165,227.76518 48.495312,7.00651 66.876793,-8.02029 -50.12565,-2.93416 z"
         points="91.791477,234.77169 158.66827,226.7514 108.54262,223.81724 43.296165,227.76518 " />
      <path
         sodipodi:type="inkscape:box3dside"
         id="path4499"
         style="fill:#e9e9ff;fill-rule:evenodd;stroke:none;stroke-width:34.16493225;stroke-linejoin:round;stroke-miterlimit:4;stroke-dasharray:none"
         inkscape:box3dsidetype="11"
         d="m 108.54262,155.79909 50.12565,-18.9741 v 89.92641 l -50.12565,-2.93416 z"
         points="158.66827,136.82499 158.66827,226.7514 108.54262,223.81724 108.54262,155.79909 " />
      <path
         sodipodi:type="inkscape:box3dside"
         id="path4491"
         style="fill:#4d4d9f;fill-rule:evenodd;stroke:none;stroke-width:34.16493225;stroke-linejoin:round;stroke-miterlimit:4;stroke-dasharray:none"
         inkscape:box3dsidetype="5"
         d="m 43.296165,130.26932 48.495312,-45.308346 66.876793,51.864016 -50.12565,18.9741 z"
         points="91.791477,84.960974 158.66827,136.82499 108.54262,155.79909 43.296165,130.26932 " />
      <path
         sodipodi:type="inkscape:box3dside"
         id="path4495"
         style="fill:#23A24D;fill-opacity:1;fill-rule:evenodd;stroke:none;stroke-width:34.16493225;stroke-linejoin:round;stroke-miterlimit:4;stroke-dasharray:none"
         inkscape:box3dsidetype="14"
         d="M 91.791477,84.960974 V 234.77169 l 66.876793,-8.02029 v -89.92641 z"
         points="91.791477,234.77169 158.66827,226.7514 158.66827,136.82499 91.791477,84.960974 " />
      <path
         sodipodi:type="inkscape:box3dside"
         id="path4493"
         style="fill:#23894D;fill-opacity:1;fill-rule:evenodd;stroke:none;stroke-width:34.16493225;stroke-linejoin:round;stroke-miterlimit:4;stroke-dasharray:none"
         inkscape:box3dsidetype="3"
         d="M 43.296165,130.26932 91.791477,84.960974 V 234.77169 l -48.495312,-7.00651 z"
         points="91.791477,84.960974 91.791477,234.77169 43.296165,227.76518 43.296165,130.26932 " />
    </g>
    <g
       sodipodi:type="inkscape:box3d"
       id="g4565"
       style="opacity:1;fill:#489961;fill-opacity:1;stroke:#23A24D;stroke-width:23.43307114;stroke-linecap:round;stroke-linejoin:round;stroke-miterlimit:4;stroke-dasharray:none;stroke-opacity:1"
       inkscape:perspectiveID="#perspective4485"
       inkscape:corner0="0.064666274 : 0.13260899 : 0 : 1"
       inkscape:corner7="0.048210524 : 0.11428586 : 0.11014117 : 1">
      <path
         sodipodi:type="inkscape:box3dside"
         id="path4567"
         style="fill:#353564;fill-rule:evenodd;stroke:none;stroke-width:34.16503525;stroke-linejoin:round"
         inkscape:box3dsidetype="6"
         d="m 96.708462,100.89583 v 25.0922 l 15.224158,8.31768 v -22.73974 z"
         points="96.708462,125.98803 111.93262,134.30571 111.93262,111.56597 96.708462,100.89583 " />
      <path
         sodipodi:type="inkscape:box3dside"
         id="path4577"
         style="fill:#e9e9ff;fill-rule:evenodd;stroke:none;stroke-width:34.16503525;stroke-linejoin:round"
         inkscape:box3dsidetype="11"
         d="m 111.93262,111.56597 2.25898,-1.46525 v 23.06279 l -2.25898,1.1422 z"
         points="114.1916,110.10072 114.1916,133.16351 111.93262,134.30571 111.93262,111.56597 " />
      <path
         sodipodi:type="inkscape:box3dside"
         id="path4569"
         style="fill:#4d4d9f;fill-rule:evenodd;stroke:none;stroke-width:34.16503525;stroke-linejoin:round"
         inkscape:box3dsidetype="5"
         d="m 96.708462,100.89583 2.257343,-1.786722 15.225795,10.991612 -2.25898,1.46525 z"
         points="98.965805,99.109108 114.1916,110.10072 111.93262,111.56597 96.708462,100.89583 " />
      <path
         sodipodi:type="inkscape:box3dside"
         id="path4575"
         style="fill:#b2bcc8;fill-opacity:1;fill-rule:evenodd;stroke:none;stroke-width:34.16503525;stroke-linejoin:round"
         inkscape:box3dsidetype="13"
         d="m 96.708462,125.98803 2.257343,-1.3928 15.225795,8.56828 -2.25898,1.1422 z"
         points="98.965805,124.59523 114.1916,133.16351 111.93262,134.30571 96.708462,125.98803 " />
      <path
         sodipodi:type="inkscape:box3dside"
         id="path4573"
         style="fill:#e1ecf8;fill-opacity:1;fill-rule:evenodd;stroke:none;stroke-width:34.16503525;stroke-linejoin:round"
         inkscape:box3dsidetype="14"
         d="m 98.965805,99.109108 v 25.486122 l 15.225795,8.56828 v -23.06279 z"
         points="98.965805,124.59523 114.1916,133.16351 114.1916,110.10072 98.965805,99.109108 " />
      <path
         sodipodi:type="inkscape:box3dside"
         id="path4571"
         style="fill:#84a8cf;fill-opacity:1;fill-rule:evenodd;stroke:none;stroke-width:34.16503525;stroke-linejoin:round"
         inkscape:box3dsidetype="3"
         d="m 96.708462,100.89583 2.257343,-1.786722 v 25.486122 l -2.257343,1.3928 z"
         points="98.965805,99.109108 98.965805,124.59523 96.708462,125.98803 96.708462,100.89583 " />
    </g>
    <g
       sodipodi:type="inkscape:box3d"
       id="g4579"
       style="opacity:1;fill:#489961;fill-opacity:1;stroke:#23A24D;stroke-width:23.43307114;stroke-linecap:round;stroke-linejoin:round;stroke-miterlimit:4;stroke-dasharray:none;stroke-opacity:1"
       inkscape:perspectiveID="#perspective4485"
       inkscape:corner0="-0.054484116 : 0.11533317 : 0 : 1"
       inkscape:corner7="-0.067026566 : 0.10037137 : 0.096200263 : 1">
      <path
         sodipodi:type="inkscape:box3dside"
         id="path4581"
         style="fill:#353564;fill-rule:evenodd;stroke:none;stroke-width:34.16503525;stroke-linejoin:round"
         inkscape:box3dsidetype="6"
         d="m 114.82833,113.19297 v 23.07107 l 13.32273,7.24409 v -20.9405 z"
         points="114.82833,136.26404 128.15106,143.50813 128.15106,122.56763 114.82833,113.19297 " />
      <path
         sodipodi:type="inkscape:box3dside"
         id="path4591"
         style="fill:#e9e9ff;fill-rule:evenodd;stroke:none;stroke-width:34.16503525;stroke-linejoin:round"
         inkscape:box3dsidetype="11"
         d="m 128.15106,122.56763 2.13554,-1.1229 v 21.1957 l -2.13554,0.8677 z"
         points="130.2866,121.44473 130.2866,142.64043 128.15106,143.50813 128.15106,122.56763 " />
      <path
         sodipodi:type="inkscape:box3dside"
         id="path4583"
         style="fill:#4d4d9f;fill-rule:evenodd;stroke:none;stroke-width:34.16503525;stroke-linejoin:round"
         inkscape:box3dsidetype="5"
         d="m 114.82833,113.19297 2.17664,-1.36471 13.28163,9.61647 -2.13554,1.1229 z"
         points="117.00497,111.82826 130.2866,121.44473 128.15106,122.56763 114.82833,113.19297 " />
      <path
         sodipodi:type="inkscape:box3dside"
         id="path4589"
         style="fill:#b2bcc8;fill-opacity:1;fill-rule:evenodd;stroke:none;stroke-width:34.16503525;stroke-linejoin:round"
         inkscape:box3dsidetype="13"
         d="m 114.82833,136.26404 2.17664,-1.05456 13.28163,7.43095 -2.13554,0.8677 z"
         points="117.00497,135.20948 130.2866,142.64043 128.15106,143.50813 114.82833,136.26404 " />
      <path
         sodipodi:type="inkscape:box3dside"
         id="path4587"
         style="fill:#e1ecf8;fill-opacity:1;fill-rule:evenodd;stroke:none;stroke-width:34.16503525;stroke-linejoin:round"
         inkscape:box3dsidetype="14"
         d="m 117.00497,111.82826 v 23.38122 l 13.28163,7.43095 v -21.1957 z"
         points="117.00497,135.20948 130.2866,142.64043 130.2866,121.44473 117.00497,111.82826 " />
      <path
         sodipodi:type="inkscape:box3dside"
         id="path4585"
         style="fill:#84a8cf;fill-opacity:1;fill-rule:evenodd;stroke:none;stroke-width:34.16503525;stroke-linejoin:round"
         inkscape:box3dsidetype="3"
         d="m 114.82833,113.19297 2.17664,-1.36471 v 23.38122 l -2.17664,1.05456 z"
         points="117.00497,111.82826 117.00497,135.20948 114.82833,136.26404 114.82833,113.19297 " />
    </g>
    <g
       sodipodi:type="inkscape:box3d"
       id="g4607"
       style="opacity:1;fill:#489961;fill-opacity:1;stroke:#23A24D;stroke-width:23.43307114;stroke-linecap:round;stroke-linejoin:round;stroke-miterlimit:4;stroke-dasharray:none;stroke-opacity:1"
       inkscape:perspectiveID="#perspective4485"
       inkscape:corner0="-0.1996353 : 0.093910436 : 0 : 1"
       inkscape:corner7="-0.20737482 : 0.083148745 : 0.084197227 : 1">
      <path
         sodipodi:type="inkscape:box3dside"
         id="path4609"
         style="fill:#353564;fill-rule:evenodd;stroke:none;stroke-width:34.16503525;stroke-linejoin:round"
         inkscape:box3dsidetype="6"
         d="m 144.19169,133.80736 v 19.60403 l 10.93711,5.83449 v -17.73801 z"
         points="144.19169,153.41139 155.1288,159.24588 155.1288,141.50787 144.19169,133.80736 " />
      <path
         sodipodi:type="inkscape:box3dside"
         id="path4619"
         style="fill:#e9e9ff;fill-rule:evenodd;stroke:none;stroke-width:34.16503525;stroke-linejoin:round"
         inkscape:box3dsidetype="11"
         d="m 155.1288,141.50787 1.78487,-0.64612 v 17.89458 l -1.78487,0.48955 z"
         points="156.91367,140.86175 156.91367,158.75633 155.1288,159.24588 155.1288,141.50787 " />
      <path
         sodipodi:type="inkscape:box3dside"
         id="path4611"
         style="fill:#4d4d9f;fill-rule:evenodd;stroke:none;stroke-width:34.16503525;stroke-linejoin:round"
         inkscape:box3dsidetype="5"
         d="m 144.19169,133.80736 1.86767,-0.78994 10.85431,7.84433 -1.78487,0.64612 z"
         points="146.05936,133.01742 156.91367,140.86175 155.1288,141.50787 144.19169,133.80736 " />
      <path
         sodipodi:type="inkscape:box3dside"
         id="path4617"
         style="fill:#b2bcc8;fill-opacity:1;fill-rule:evenodd;stroke:none;stroke-width:34.16503525;stroke-linejoin:round"
         inkscape:box3dsidetype="13"
         d="m 144.19169,153.41139 1.86767,-0.59853 10.85431,5.94347 -1.78487,0.48955 z"
         points="146.05936,152.81286 156.91367,158.75633 155.1288,159.24588 144.19169,153.41139 " />
      <path
         sodipodi:type="inkscape:box3dside"
         id="path4615"
         style="fill:#e1ecf8;fill-opacity:1;fill-rule:evenodd;stroke:none;stroke-width:34.16503525;stroke-linejoin:round"
         inkscape:box3dsidetype="14"
         d="m 146.05936,133.01742 v 19.79544 l 10.85431,5.94347 v -17.89458 z"
         points="146.05936,152.81286 156.91367,158.75633 156.91367,140.86175 146.05936,133.01742 " />
      <path
         sodipodi:type="inkscape:box3dside"
         id="path4613"
         style="fill:#84a8cf;fill-opacity:1;fill-rule:evenodd;stroke:none;stroke-width:34.16503525;stroke-linejoin:round"
         inkscape:box3dsidetype="3"
         d="m 144.19169,133.80736 1.86767,-0.78994 v 19.79544 l -1.86767,0.59853 z"
         points="146.05936,133.01742 146.05936,152.81286 144.19169,153.41139 144.19169,133.80736 " />
    </g>
    <g
       sodipodi:type="inkscape:box3d"
       id="g4593"
       style="opacity:1;fill:#489961;fill-opacity:1;stroke:#23A24D;stroke-width:23.43307114;stroke-linecap:round;stroke-linejoin:round;stroke-miterlimit:4;stroke-dasharray:none;stroke-opacity:1"
       inkscape:perspectiveID="#perspective4485"
       inkscape:corner0="-0.13878352 : 0.10264628 : 0 : 1"
       inkscape:corner7="-0.14964966 : 0.090420466 : 0.086178742 : 1">
      <path
         sodipodi:type="inkscape:box3dside"
         id="path4595"
         style="fill:#353564;fill-rule:evenodd;stroke:none;stroke-width:34.16503525;stroke-linejoin:round"
         inkscape:box3dsidetype="6"
         d="m 130.67673,124.73439 v 20.69751 l 11.68143,6.30158 V 132.9187 Z"
         points="130.67673,145.4319 142.35816,151.73348 142.35816,132.9187 130.67673,124.73439 " />
      <path
         sodipodi:type="inkscape:box3dside"
         id="path4605"
         style="fill:#e9e9ff;fill-rule:evenodd;stroke:none;stroke-width:34.16503525;stroke-linejoin:round"
         inkscape:box3dsidetype="11"
         d="m 142.35816,132.9187 2.19799,-0.94896 v 19.03308 l -2.19799,0.73066 z"
         points="144.55615,131.96974 144.55615,151.00282 142.35816,151.73348 142.35816,132.9187 " />
      <path
         sodipodi:type="inkscape:box3dside"
         id="path4597"
         style="fill:#4d4d9f;fill-rule:evenodd;stroke:none;stroke-width:34.16503525;stroke-linejoin:round"
         inkscape:box3dsidetype="5"
         d="m 130.67673,124.73439 2.27147,-1.14972 11.60795,8.38507 -2.19799,0.94896 z"
         points="132.9482,123.58467 144.55615,131.96974 142.35816,132.9187 130.67673,124.73439 " />
      <path
         sodipodi:type="inkscape:box3dside"
         id="path4603"
         style="fill:#b2bcc8;fill-opacity:1;fill-rule:evenodd;stroke:none;stroke-width:34.16503525;stroke-linejoin:round"
         inkscape:box3dsidetype="13"
         d="m 130.67673,145.4319 2.27147,-0.88524 11.60795,6.45616 -2.19799,0.73066 z"
         points="132.9482,144.54666 144.55615,151.00282 142.35816,151.73348 130.67673,145.4319 " />
      <path
         sodipodi:type="inkscape:box3dside"
         id="path4601"
         style="fill:#e1ecf8;fill-opacity:1;fill-rule:evenodd;stroke:none;stroke-width:34.16503525;stroke-linejoin:round"
         inkscape:box3dsidetype="14"
         d="m 132.9482,123.58467 v 20.96199 l 11.60795,6.45616 v -19.03308 z"
         points="132.9482,144.54666 144.55615,151.00282 144.55615,131.96974 132.9482,123.58467 " />
      <path
         sodipodi:type="inkscape:box3dside"
         id="path4599"
         style="fill:#84a8cf;fill-opacity:1;fill-rule:evenodd;stroke:none;stroke-width:34.16503525;stroke-linejoin:round"
         inkscape:box3dsidetype="3"
         d="m 130.67673,124.73439 2.27147,-1.14972 v 20.96199 l -2.27147,0.88524 z"
         points="132.9482,123.58467 132.9482,144.54666 130.67673,145.4319 130.67673,124.73439 " />
    </g>
    <g
       sodipodi:type="inkscape:box3d"
       id="g4621"
       style="opacity:1;fill:#489961;fill-opacity:1;stroke:#23A24D;stroke-width:23.43307114;stroke-linecap:round;stroke-linejoin:round;stroke-miterlimit:4;stroke-dasharray:none;stroke-opacity:1"
       inkscape:perspectiveID="#perspective4485"
       inkscape:corner0="0.064666274 : 0.10975231 : 0 : 1"
       inkscape:corner7="0.047631614 : 0.090187759 : 0.109547 : 1">
      <path
         sodipodi:type="inkscape:box3dside"
         id="path4623"
         style="fill:#353564;fill-rule:evenodd;stroke:none;stroke-width:34.16503525;stroke-linejoin:round"
         inkscape:box3dsidetype="6"
         d="m 96.708462,132.1964 v 26.79224 l 15.149688,5.19824 V 139.8942 Z"
         points="96.708462,158.98864 111.85815,164.18688 111.85815,139.8942 96.708462,132.1964 " />
      <path
         sodipodi:type="inkscape:box3dside"
         id="path4633"
         style="fill:#e9e9ff;fill-rule:evenodd;stroke:none;stroke-width:34.16503525;stroke-linejoin:round"
         inkscape:box3dsidetype="11"
         d="m 111.85815,139.8942 2.33973,-1.10132 v 24.65029 l -2.33973,0.74371 z"
         points="114.19788,138.79288 114.19788,163.44317 111.85815,164.18688 111.85815,139.8942 " />
      <path
         sodipodi:type="inkscape:box3dside"
         id="path4625"
         style="fill:#4d4d9f;fill-rule:evenodd;stroke:none;stroke-width:34.16503525;stroke-linejoin:round"
         inkscape:box3dsidetype="5"
         d="m 96.708462,132.1964 2.338047,-1.34164 15.151371,7.93812 -2.33973,1.10132 z"
         points="99.046509,130.85476 114.19788,138.79288 111.85815,139.8942 96.708462,132.1964 " />
      <path
         sodipodi:type="inkscape:box3dside"
         id="path4631"
         style="fill:#b2bcc8;fill-opacity:1;fill-rule:evenodd;stroke:none;stroke-width:34.16503525;stroke-linejoin:round"
         inkscape:box3dsidetype="13"
         d="m 96.708462,158.98864 2.338047,-0.906 15.151371,5.36053 -2.33973,0.74371 z"
         points="99.046509,158.08264 114.19788,163.44317 111.85815,164.18688 96.708462,158.98864 " />
      <path
         sodipodi:type="inkscape:box3dside"
         id="path4629"
         style="fill:#e1ecf8;fill-opacity:1;fill-rule:evenodd;stroke:none;stroke-width:34.16503525;stroke-linejoin:round"
         inkscape:box3dsidetype="14"
         d="m 99.046509,130.85476 v 27.22788 l 15.151371,5.36053 v -24.65029 z"
         points="99.046509,158.08264 114.19788,163.44317 114.19788,138.79288 99.046509,130.85476 " />
      <path
         sodipodi:type="inkscape:box3dside"
         id="path4627"
         style="fill:#84a8cf;fill-opacity:1;fill-rule:evenodd;stroke:none;stroke-width:34.16503525;stroke-linejoin:round"
         inkscape:box3dsidetype="3"
         d="m 96.708462,132.1964 2.338047,-1.34164 v 27.22788 l -2.338047,0.906 z"
         points="99.046509,130.85476 99.046509,158.08264 96.708462,158.98864 96.708462,132.1964 " />
    </g>
    <g
       sodipodi:type="inkscape:box3d"
       id="g4635"
       style="opacity:1;fill:#489961;fill-opacity:1;stroke:#23A24D;stroke-width:23.43307114;stroke-linecap:round;stroke-linejoin:round;stroke-miterlimit:4;stroke-dasharray:none;stroke-opacity:1"
       inkscape:perspectiveID="#perspective4485"
       inkscape:corner0="-0.053918144 : 0.097118977 : 0 : 1"
       inkscape:corner7="-0.066919244 : 0.081461079 : 0.096026323 : 1">
      <path
         sodipodi:type="inkscape:box3dside"
         id="path4637"
         style="fill:#353564;fill-rule:evenodd;stroke:none;stroke-width:34.16503525;stroke-linejoin:round"
         inkscape:box3dsidetype="6"
         d="m 114.73147,141.32315 v 24.13 l 13.30256,4.53861 v -21.90651 z"
         points="114.73147,165.45315 128.03403,169.99176 128.03403,148.08525 114.73147,141.32315 " />
      <path
         sodipodi:type="inkscape:box3dside"
         id="path4647"
         style="fill:#e9e9ff;fill-rule:evenodd;stroke:none;stroke-width:34.16503525;stroke-linejoin:round"
         inkscape:box3dsidetype="11"
         d="m 128.03403,148.08525 2.2123,-0.84167 v 22.18327 l -2.2123,0.56491 z"
         points="130.24633,147.24358 130.24633,169.42685 128.03403,169.99176 128.03403,148.08525 " />
      <path
         sodipodi:type="inkscape:box3dside"
         id="path4639"
         style="fill:#4d4d9f;fill-rule:evenodd;stroke:none;stroke-width:34.16503525;stroke-linejoin:round"
         inkscape:box3dsidetype="5"
         d="m 114.73147,141.32315 2.25463,-1.0225 13.26023,6.94293 -2.2123,0.84167 z"
         points="116.9861,140.30065 130.24633,147.24358 128.03403,148.08525 114.73147,141.32315 " />
      <path
         sodipodi:type="inkscape:box3dside"
         id="path4645"
         style="fill:#b2bcc8;fill-opacity:1;fill-rule:evenodd;stroke:none;stroke-width:34.16503525;stroke-linejoin:round"
         inkscape:box3dsidetype="13"
         d="m 114.73147,165.45315 2.25463,-0.68628 13.26023,4.65998 -2.2123,0.56491 z"
         points="116.9861,164.76687 130.24633,169.42685 128.03403,169.99176 114.73147,165.45315 " />
      <path
         sodipodi:type="inkscape:box3dside"
         id="path4643"
         style="fill:#e1ecf8;fill-opacity:1;fill-rule:evenodd;stroke:none;stroke-width:34.16503525;stroke-linejoin:round"
         inkscape:box3dsidetype="14"
         d="m 116.9861,140.30065 v 24.46622 l 13.26023,4.65998 v -22.18327 z"
         points="116.9861,164.76687 130.24633,169.42685 130.24633,147.24358 116.9861,140.30065 " />
      <path
         sodipodi:type="inkscape:box3dside"
         id="path4641"
         style="fill:#84a8cf;fill-opacity:1;fill-rule:evenodd;stroke:none;stroke-width:34.16503525;stroke-linejoin:round"
         inkscape:box3dsidetype="3"
         d="m 114.73147,141.32315 2.25463,-1.0225 v 24.46622 l -2.25463,0.68628 z"
         points="116.9861,140.30065 116.9861,164.76687 114.73147,165.45315 114.73147,141.32315 " />
    </g>
    <g
       sodipodi:type="inkscape:box3d"
       id="g4663"
       style="opacity:1;fill:#489961;fill-opacity:1;stroke:#23A24D;stroke-width:23.43307114;stroke-linecap:round;stroke-linejoin:round;stroke-miterlimit:4;stroke-dasharray:none;stroke-opacity:1"
       inkscape:perspectiveID="#perspective4485"
       inkscape:corner0="-0.19905085 : 0.081542004 : 0 : 1"
       inkscape:corner7="-0.20778774 : 0.071338783 : 0.08306264 : 1">
      <path
         sodipodi:type="inkscape:box3dside"
         id="path4665"
         style="fill:#353564;fill-rule:evenodd;stroke:none;stroke-width:34.16503525;stroke-linejoin:round"
         inkscape:box3dsidetype="6"
         d="m 144.05212,156.3809 v 18.57312 l 10.80956,3.73529 v -16.82798 z"
         points="144.05212,174.95402 154.86168,178.68931 154.86168,161.86133 144.05212,156.3809 " />
      <path
         sodipodi:type="inkscape:box3dside"
         id="path4675"
         style="fill:#e9e9ff;fill-rule:evenodd;stroke:none;stroke-width:34.16503525;stroke-linejoin:round"
         inkscape:box3dsidetype="11"
         d="m 154.86168,161.86133 2.01577,-0.5275 v 16.99595 l -2.01577,0.35953 z"
         points="156.87745,161.33383 156.87745,178.32978 154.86168,178.68931 154.86168,161.86133 " />
      <path
         sodipodi:type="inkscape:box3dside"
         id="path4667"
         style="fill:#4d4d9f;fill-rule:evenodd;stroke:none;stroke-width:34.16503525;stroke-linejoin:round"
         inkscape:box3dsidetype="5"
         d="m 144.05212,156.3809 2.10791,-0.64326 10.71742,5.59619 -2.01577,0.5275 z"
         points="146.16003,155.73764 156.87745,161.33383 154.86168,161.86133 144.05212,156.3809 " />
      <path
         sodipodi:type="inkscape:box3dside"
         id="path4673"
         style="fill:#b2bcc8;fill-opacity:1;fill-rule:evenodd;stroke:none;stroke-width:34.16503525;stroke-linejoin:round"
         inkscape:box3dsidetype="13"
         d="m 144.05212,174.95402 2.10791,-0.43842 10.71742,3.81418 -2.01577,0.35953 z"
         points="146.16003,174.5156 156.87745,178.32978 154.86168,178.68931 144.05212,174.95402 " />
      <path
         sodipodi:type="inkscape:box3dside"
         id="path4671"
         style="fill:#e1ecf8;fill-opacity:1;fill-rule:evenodd;stroke:none;stroke-width:34.16503525;stroke-linejoin:round"
         inkscape:box3dsidetype="14"
         d="m 146.16003,155.73764 v 18.77796 l 10.71742,3.81418 v -16.99595 z"
         points="146.16003,174.5156 156.87745,178.32978 156.87745,161.33383 146.16003,155.73764 " />
      <path
         sodipodi:type="inkscape:box3dside"
         id="path4669"
         style="fill:#84a8cf;fill-opacity:1;fill-rule:evenodd;stroke:none;stroke-width:34.16503525;stroke-linejoin:round"
         inkscape:box3dsidetype="3"
         d="m 144.05212,156.3809 2.10791,-0.64326 v 18.77796 l -2.10791,0.43842 z"
         points="146.16003,155.73764 146.16003,174.5156 144.05212,174.95402 144.05212,156.3809 " />
    </g>
    <g
       sodipodi:type="inkscape:box3d"
       id="g4649"
       style="opacity:1;fill:#489961;fill-opacity:1;stroke:#23A24D;stroke-width:23.43307114;stroke-linecap:round;stroke-linejoin:round;stroke-miterlimit:4;stroke-dasharray:none;stroke-opacity:1"
       inkscape:perspectiveID="#perspective4485"
       inkscape:corner0="-0.13940447 : 0.088164711 : 0 : 1"
       inkscape:corner7="-0.14899842 : 0.075521312 : 0.086529306 : 1">
      <path
         sodipodi:type="inkscape:box3dside"
         id="path4651"
         style="fill:#353564;fill-rule:evenodd;stroke:none;stroke-width:34.16503525;stroke-linejoin:round"
         inkscape:box3dsidetype="6"
         d="m 130.80499,149.20351 v 21.4199 l 11.72058,4.02753 v -19.46297 z"
         points="130.80499,170.62341 142.52557,174.65094 142.52557,155.18797 130.80499,149.20351 " />
      <path
         sodipodi:type="inkscape:box3dside"
         id="path4661"
         style="fill:#e9e9ff;fill-rule:evenodd;stroke:none;stroke-width:34.16503525;stroke-linejoin:round"
         inkscape:box3dsidetype="11"
         d="m 142.52557,155.18797 1.94029,-0.60908 v 19.66214 l -1.94029,0.40991 z"
         points="144.46586,154.57889 144.46586,174.24103 142.52557,174.65094 142.52557,155.18797 " />
      <path
         sodipodi:type="inkscape:box3dside"
         id="path4653"
         style="fill:#4d4d9f;fill-rule:evenodd;stroke:none;stroke-width:34.16503525;stroke-linejoin:round"
         inkscape:box3dsidetype="5"
         d="m 130.80499,149.20351 2.00544,-0.73847 11.65543,6.11385 -1.94029,0.60908 z"
         points="132.81043,148.46504 144.46586,154.57889 142.52557,155.18797 130.80499,149.20351 " />
      <path
         sodipodi:type="inkscape:box3dside"
         id="path4659"
         style="fill:#b2bcc8;fill-opacity:1;fill-rule:evenodd;stroke:none;stroke-width:34.16503525;stroke-linejoin:round"
         inkscape:box3dsidetype="13"
         d="m 130.80499,170.62341 2.00544,-0.49699 11.65543,4.11461 -1.94029,0.40991 z"
         points="132.81043,170.12642 144.46586,174.24103 142.52557,174.65094 130.80499,170.62341 " />
      <path
         sodipodi:type="inkscape:box3dside"
         id="path4657"
         style="fill:#e1ecf8;fill-opacity:1;fill-rule:evenodd;stroke:none;stroke-width:34.16503525;stroke-linejoin:round"
         inkscape:box3dsidetype="14"
         d="m 132.81043,148.46504 v 21.66138 l 11.65543,4.11461 v -19.66214 z"
         points="132.81043,170.12642 144.46586,174.24103 144.46586,154.57889 132.81043,148.46504 " />
      <path
         sodipodi:type="inkscape:box3dside"
         id="path4655"
         style="fill:#84a8cf;fill-opacity:1;fill-rule:evenodd;stroke:none;stroke-width:34.16503525;stroke-linejoin:round"
         inkscape:box3dsidetype="3"
         d="m 130.80499,149.20351 2.00544,-0.73847 v 21.66138 l -2.00544,0.49699 z"
         points="132.81043,148.46504 132.81043,170.12642 130.80499,170.62341 130.80499,149.20351 " />
    </g>
    <g
       sodipodi:type="inkscape:box3d"
       id="g4679"
       style="opacity:1;fill:#489961;fill-opacity:1;stroke:#23A24D;stroke-width:23.43307114;stroke-linecap:round;stroke-linejoin:round;stroke-miterlimit:4;stroke-dasharray:none;stroke-opacity:1"
       inkscape:perspectiveID="#perspective4485"
       inkscape:corner0="0.064666273 : 0.086594356 : 0 : 1"
       inkscape:corner7="0.047631613 : 0.066943904 : 0.10843815 : 1">
      <path
         sodipodi:type="inkscape:box3dside"
         id="path4681"
         style="fill:#353564;fill-rule:evenodd;stroke:none;stroke-width:34.16503525;stroke-linejoin:round"
         inkscape:box3dsidetype="6"
         d="m 96.708462,163.90955 v 26.90987 l 15.010518,2.20815 v -24.42241 z"
         points="96.708462,190.81942 111.71898,193.02757 111.71898,168.60516 96.708462,163.90955 " />
      <path
         sodipodi:type="inkscape:box3dside"
         id="path4691"
         style="fill:#e9e9ff;fill-rule:evenodd;stroke:none;stroke-width:34.16503525;stroke-linejoin:round"
         inkscape:box3dsidetype="11"
         d="m 111.71898,168.60516 2.33992,-0.67932 v 24.78228 l -2.33992,0.31945 z"
         points="114.0589,167.92584 114.0589,192.70812 111.71898,193.02757 111.71898,168.60516 " />
      <path
         sodipodi:type="inkscape:box3dside"
         id="path4683"
         style="fill:#4d4d9f;fill-rule:evenodd;stroke:none;stroke-width:34.16503525;stroke-linejoin:round"
         inkscape:box3dsidetype="5"
         d="m 96.708462,163.90955 2.338047,-0.82599 15.012391,4.84228 -2.33992,0.67932 z"
         points="99.046509,163.08356 114.0589,167.92584 111.71898,168.60516 96.708462,163.90955 " />
      <path
         sodipodi:type="inkscape:box3dside"
         id="path4689"
         style="fill:#b2bcc8;fill-opacity:1;fill-rule:evenodd;stroke:none;stroke-width:34.16503525;stroke-linejoin:round"
         inkscape:box3dsidetype="13"
         d="m 96.708462,190.81942 2.338047,-0.38842 15.012391,2.27712 -2.33992,0.31945 z"
         points="99.046509,190.431 114.0589,192.70812 111.71898,193.02757 96.708462,190.81942 " />
      <path
         sodipodi:type="inkscape:box3dside"
         id="path4687"
         style="fill:#e1ecf8;fill-opacity:1;fill-rule:evenodd;stroke:none;stroke-width:34.16503525;stroke-linejoin:round"
         inkscape:box3dsidetype="14"
         d="M 99.046509,163.08356 V 190.431 l 15.012391,2.27712 v -24.78228 z"
         points="99.046509,190.431 114.0589,192.70812 114.0589,167.92584 99.046509,163.08356 " />
      <path
         sodipodi:type="inkscape:box3dside"
         id="path4685"
         style="fill:#84a8cf;fill-opacity:1;fill-rule:evenodd;stroke:none;stroke-width:34.16503525;stroke-linejoin:round"
         inkscape:box3dsidetype="3"
         d="m 96.708462,163.90955 2.338047,-0.82599 V 190.431 l -2.338047,0.38842 z"
         points="99.046509,163.08356 99.046509,190.431 96.708462,190.81942 96.708462,163.90955 " />
    </g>
    <g
       sodipodi:type="inkscape:box3d"
       id="g4693"
       style="opacity:1;fill:#489961;fill-opacity:1;stroke:#23A24D;stroke-width:23.43307114;stroke-linecap:round;stroke-linejoin:round;stroke-miterlimit:4;stroke-dasharray:none;stroke-opacity:1"
       inkscape:perspectiveID="#perspective4485"
       inkscape:corner0="-0.054081657 : 0.078837099 : 0 : 1"
       inkscape:corner7="-0.067160942 : 0.063244954 : 0.097097188 : 1">
      <path
         sodipodi:type="inkscape:box3dside"
         id="path4695"
         style="fill:#353564;fill-rule:evenodd;stroke:none;stroke-width:34.16503525;stroke-linejoin:round"
         inkscape:box3dsidetype="6"
         d="m 114.75944,169.48909 v 24.03283 l 13.43661,1.97223 V 173.6986 Z"
         points="114.75944,193.52192 128.19605,195.49415 128.19605,173.6986 114.75944,169.48909 " />
      <path
         sodipodi:type="inkscape:box3dside"
         id="path4705"
         style="fill:#e9e9ff;fill-rule:evenodd;stroke:none;stroke-width:34.16503525;stroke-linejoin:round"
         inkscape:box3dsidetype="11"
         d="m 128.19605,173.6986 2.22587,-0.52077 v 22.07232 l -2.22587,0.244 z"
         points="130.42192,173.17783 130.42192,195.25015 128.19605,195.49415 128.19605,173.6986 " />
      <path
         sodipodi:type="inkscape:box3dside"
         id="path4697"
         style="fill:#4d4d9f;fill-rule:evenodd;stroke:none;stroke-width:34.16503525;stroke-linejoin:round"
         inkscape:box3dsidetype="5"
         d="m 114.75944,169.48909 2.26917,-0.63401 13.39331,4.32275 -2.22587,0.52077 z"
         points="117.02861,168.85508 130.42192,173.17783 128.19605,173.6986 114.75944,169.48909 " />
      <path
         sodipodi:type="inkscape:box3dside"
         id="path4703"
         style="fill:#b2bcc8;fill-opacity:1;fill-rule:evenodd;stroke:none;stroke-width:34.16503525;stroke-linejoin:round"
         inkscape:box3dsidetype="13"
         d="m 114.75944,193.52192 2.26917,-0.29705 13.39331,2.02528 -2.22587,0.244 z"
         points="117.02861,193.22487 130.42192,195.25015 128.19605,195.49415 114.75944,193.52192 " />
      <path
         sodipodi:type="inkscape:box3dside"
         id="path4701"
         style="fill:#e1ecf8;fill-opacity:1;fill-rule:evenodd;stroke:none;stroke-width:34.16503525;stroke-linejoin:round"
         inkscape:box3dsidetype="14"
         d="m 117.02861,168.85508 v 24.36979 l 13.39331,2.02528 v -22.07232 z"
         points="117.02861,193.22487 130.42192,195.25015 130.42192,173.17783 117.02861,168.85508 " />
      <path
         sodipodi:type="inkscape:box3dside"
         id="path4699"
         style="fill:#84a8cf;fill-opacity:1;fill-rule:evenodd;stroke:none;stroke-width:34.16503525;stroke-linejoin:round"
         inkscape:box3dsidetype="3"
         d="m 114.75944,169.48909 2.26917,-0.63401 v 24.36979 l -2.26917,0.29705 z"
         points="117.02861,168.85508 117.02861,193.22487 114.75944,193.52192 114.75944,169.48909 " />
    </g>
    <g
       sodipodi:type="inkscape:box3d"
       id="g4721"
       style="opacity:1;fill:#489961;fill-opacity:1;stroke:#23A24D;stroke-width:23.43307114;stroke-linecap:round;stroke-linejoin:round;stroke-miterlimit:4;stroke-dasharray:none;stroke-opacity:1"
       inkscape:perspectiveID="#perspective4485"
       inkscape:corner0="-0.19881919 : 0.069316761 : 0 : 1"
       inkscape:corner7="-0.20737482 : 0.058769188 : 0.082822376 : 1">
      <path
         sodipodi:type="inkscape:box3dside"
         id="path4723"
         style="fill:#353564;fill-rule:evenodd;stroke:none;stroke-width:34.16503525;stroke-linejoin:round"
         inkscape:box3dsidetype="6"
         d="m 143.99686,178.64518 v 19.1944 l 10.78357,1.58037 v -17.39608 z"
         points="143.99686,197.83958 154.78043,199.41995 154.78043,182.02387 143.99686,178.64518 " />
      <path
         sodipodi:type="inkscape:box3dside"
         id="path4733"
         style="fill:#e9e9ff;fill-rule:evenodd;stroke:none;stroke-width:34.16503525;stroke-linejoin:round"
         inkscape:box3dsidetype="11"
         d="m 154.78043,182.02387 1.97276,-0.31941 v 17.56608 l -1.97276,0.14941 z"
         points="156.75319,181.70446 156.75319,199.27054 154.78043,199.41995 154.78043,182.02387 " />
      <path
         sodipodi:type="inkscape:box3dside"
         id="path4725"
         style="fill:#4d4d9f;fill-rule:evenodd;stroke:none;stroke-width:34.16503525;stroke-linejoin:round"
         inkscape:box3dsidetype="5"
         d="m 143.99686,178.64518 2.0625,-0.38926 10.69383,3.44854 -1.97276,0.31941 z"
         points="146.05936,178.25592 156.75319,181.70446 154.78043,182.02387 143.99686,178.64518 " />
      <path
         sodipodi:type="inkscape:box3dside"
         id="path4731"
         style="fill:#b2bcc8;fill-opacity:1;fill-rule:evenodd;stroke:none;stroke-width:34.16503525;stroke-linejoin:round"
         inkscape:box3dsidetype="13"
         d="m 143.99686,197.83958 2.0625,-0.18207 10.69383,1.61303 -1.97276,0.14941 z"
         points="146.05936,197.65751 156.75319,199.27054 154.78043,199.41995 143.99686,197.83958 " />
      <path
         sodipodi:type="inkscape:box3dside"
         id="path4729"
         style="fill:#e1ecf8;fill-opacity:1;fill-rule:evenodd;stroke:none;stroke-width:34.16503525;stroke-linejoin:round"
         inkscape:box3dsidetype="14"
         d="m 146.05936,178.25592 v 19.40159 l 10.69383,1.61303 v -17.56608 z"
         points="146.05936,197.65751 156.75319,199.27054 156.75319,181.70446 146.05936,178.25592 " />
      <path
         sodipodi:type="inkscape:box3dside"
         id="path4727"
         style="fill:#84a8cf;fill-opacity:1;fill-rule:evenodd;stroke:none;stroke-width:34.16503525;stroke-linejoin:round"
         inkscape:box3dsidetype="3"
         d="m 143.99686,178.64518 2.0625,-0.38926 v 19.40159 l -2.0625,0.18207 z"
         points="146.05936,178.25592 146.05936,197.65751 143.99686,197.83958 143.99686,178.64518 " />
    </g>
    <g
       sodipodi:type="inkscape:box3d"
       id="g4707"
       style="opacity:1;fill:#489961;fill-opacity:1;stroke:#23A24D;stroke-width:23.43307114;stroke-linecap:round;stroke-linejoin:round;stroke-miterlimit:4;stroke-dasharray:none;stroke-opacity:1"
       inkscape:perspectiveID="#perspective4485"
       inkscape:corner0="-0.13940447 : 0.0732314 : 0 : 1"
       inkscape:corner7="-0.14991912 : 0.060621382 : 0.083439285 : 1">
      <path
         sodipodi:type="inkscape:box3dside"
         id="path4709"
         style="fill:#353564;fill-rule:evenodd;stroke:none;stroke-width:34.16503525;stroke-linejoin:round"
         inkscape:box3dsidetype="6"
         d="m 130.80499,174.50288 v 21.36335 l 11.33902,1.66531 v -19.47513 z"
         points="130.80499,195.86623 142.14401,197.53154 142.14401,178.05641 130.80499,174.50288 " />
      <path
         sodipodi:type="inkscape:box3dside"
         id="path4719"
         style="fill:#e9e9ff;fill-rule:evenodd;stroke:none;stroke-width:34.16503525;stroke-linejoin:round"
         inkscape:box3dsidetype="11"
         d="m 142.14401,178.05641 2.13133,-0.41282 v 19.69448 l -2.13133,0.19347 z"
         points="144.27534,177.64359 144.27534,197.33807 142.14401,197.53154 142.14401,178.05641 " />
      <path
         sodipodi:type="inkscape:box3dside"
         id="path4711"
         style="fill:#4d4d9f;fill-rule:evenodd;stroke:none;stroke-width:34.16503525;stroke-linejoin:round"
         inkscape:box3dsidetype="5"
         d="m 130.80499,174.50288 2.20027,-0.49729 11.27008,3.638 -2.13133,0.41282 z"
         points="133.00526,174.00559 144.27534,177.64359 142.14401,178.05641 130.80499,174.50288 " />
      <path
         sodipodi:type="inkscape:box3dside"
         id="path4717"
         style="fill:#b2bcc8;fill-opacity:1;fill-rule:evenodd;stroke:none;stroke-width:34.16503525;stroke-linejoin:round"
         inkscape:box3dsidetype="13"
         d="m 130.80499,195.86623 2.20027,-0.23305 11.27008,1.70489 -2.13133,0.19347 z"
         points="133.00526,195.63318 144.27534,197.33807 142.14401,197.53154 130.80499,195.86623 " />
      <path
         sodipodi:type="inkscape:box3dside"
         id="path4715"
         style="fill:#e1ecf8;fill-opacity:1;fill-rule:evenodd;stroke:none;stroke-width:34.16503525;stroke-linejoin:round"
         inkscape:box3dsidetype="14"
         d="m 133.00526,174.00559 v 21.62759 l 11.27008,1.70489 v -19.69448 z"
         points="133.00526,195.63318 144.27534,197.33807 144.27534,177.64359 133.00526,174.00559 " />
      <path
         sodipodi:type="inkscape:box3dside"
         id="path4713"
         style="fill:#84a8cf;fill-opacity:1;fill-rule:evenodd;stroke:none;stroke-width:34.16503525;stroke-linejoin:round"
         inkscape:box3dsidetype="3"
         d="m 130.80499,174.50288 2.20027,-0.49729 v 21.62759 l -2.20027,0.23305 z"
         points="133.00526,174.00559 133.00526,195.63318 130.80499,195.86623 130.80499,174.50288 " />
    </g>
    <g
       sodipodi:type="inkscape:box3d"
       id="g4735"
       style="opacity:1;fill:#489961;fill-opacity:1;stroke:#23A24D;stroke-width:23.43307114;stroke-linecap:round;stroke-linejoin:round;stroke-miterlimit:4;stroke-dasharray:none;stroke-opacity:1"
       inkscape:perspectiveID="#perspective4485"
       inkscape:corner0="-0.039457565 : 0.059276879 : 0 : 1"
       inkscape:corner7="-0.064614635 : 0.037755412 : 0.14986139 : 1">
      <path
         sodipodi:type="inkscape:box3dside"
         id="path4737"
         style="fill:#353564;fill-rule:evenodd;stroke:none;stroke-width:34.16503525;stroke-linejoin:round"
         inkscape:box3dsidetype="6"
         d="m 112.29544,199.86751 v 32.6669 l 19.81226,-2.40593 v -28.25814 z"
         points="112.29544,232.53441 132.1077,230.12848 132.1077,201.87034 112.29544,199.86751 " />
      <path
         sodipodi:type="inkscape:box3dside"
         id="path4745"
         style="fill:#afafde;fill-rule:evenodd;stroke:none;stroke-width:34.16503525;stroke-linejoin:round"
         inkscape:box3dsidetype="13"
         d="m 112.29544,232.53441 4.28643,0.47945 19.6796,-2.52791 -4.15377,-0.35747 z"
         points="116.58187,233.01386 136.26147,230.48595 132.1077,230.12848 112.29544,232.53441 " />
      <path
         sodipodi:type="inkscape:box3dside"
         id="path4747"
         style="fill:#e9e9ff;fill-rule:evenodd;stroke:none;stroke-width:34.16503525;stroke-linejoin:round"
         inkscape:box3dsidetype="11"
         d="m 132.1077,201.87034 4.15377,-0.29758 v 28.91319 l -4.15377,-0.35747 z"
         points="136.26147,201.57276 136.26147,230.48595 132.1077,230.12848 132.1077,201.87034 " />
      <path
         sodipodi:type="inkscape:box3dside"
         id="path4739"
         style="fill:#4d4d9f;fill-rule:evenodd;stroke:none;stroke-width:34.16503525;stroke-linejoin:round"
         inkscape:box3dsidetype="5"
         d="m 112.29544,199.86751 4.28643,-0.39913 19.6796,2.10438 -4.15377,0.29758 z"
         points="116.58187,199.46838 136.26147,201.57276 132.1077,201.87034 112.29544,199.86751 " />
      <path
         sodipodi:type="inkscape:box3dside"
         id="path4743"
         style="fill:#e1ecf8;fill-opacity:1;fill-rule:evenodd;stroke:none;stroke-width:34.16503525;stroke-linejoin:round"
         inkscape:box3dsidetype="14"
         d="m 116.58187,199.46838 v 33.54548 l 19.6796,-2.52791 v -28.91319 z"
         points="116.58187,233.01386 136.26147,230.48595 136.26147,201.57276 116.58187,199.46838 " />
      <path
         sodipodi:type="inkscape:box3dside"
         id="path4741"
         style="fill:#84a8cf;fill-opacity:1;fill-rule:evenodd;stroke:none;stroke-width:34.16503525;stroke-linejoin:round"
         inkscape:box3dsidetype="3"
         d="m 112.29544,199.86751 4.28643,-0.39913 v 33.54548 l -4.28643,-0.47945 z"
         points="116.58187,199.46838 116.58187,233.01386 112.29544,232.53441 112.29544,199.86751 " />
    </g>
  </g>
</svg>
