<svg id="svg8" xmlns="http://www.w3.org/2000/svg" viewBox="0 0 526.66 466.7"><defs><style>.cls-1{fill:#ebba16;}.cls-2{fill:#23a24d;}.cls-3{fill:#afafde;}.cls-4{fill:#e9e9ff;}.cls-5{fill:#b2bcc8;}.cls-6{fill:#e1ecf8;}.cls-7{fill:#84a8cf;}</style></defs><title>officebuilding</title><g id="layer1"><g id="g4837"><path id="path4847" class="cls-1" d="M23.26,487.79l222,58.17,304.66-63.57L323.83,471.65Z" transform="translate(-23.26 -79.26)"/></g><g id="g4487"><path id="path4489" class="cls-2" d="M122.73,207.69V484.06l185-11.19V280.06Z" transform="translate(-23.26 -79.26)"/><path id="path4497" class="cls-3" d="M122.73,484.06,260.2,503.92l189.57-22.73-142.09-8.32Z" transform="translate(-23.26 -79.26)"/><path id="path4499" class="cls-4" d="M307.68,280.06l142.09-53.78V481.19l-142.09-8.32Z" transform="translate(-23.26 -79.26)"/><path id="path4491" class="cls-2" d="M122.73,207.69,260.2,79.26l189.57,147L307.68,280.06Z" transform="translate(-23.26 -79.26)"/><path id="path4495" class="cls-2" d="M260.2,79.26V503.92l189.57-22.73V226.28Z" transform="translate(-23.26 -79.26)"/><path id="path4493" class="cls-2" d="M122.73,207.69,260.2,79.26V503.92L122.73,484.06Z" transform="translate(-23.26 -79.26)"/></g><g id="g4565"><path id="path4567" class="cls-2" d="M274.13,124.43v71.13l43.16,23.57V154.68Z" transform="translate(-23.26 -79.26)"/><path id="path4577" class="cls-4" d="M317.29,154.68l6.4-4.16V215.9l-6.4,3.23Z" transform="translate(-23.26 -79.26)"/><path id="path4569" class="cls-2" d="M274.13,124.43l6.4-5.07,43.16,31.16-6.4,4.16Z" transform="translate(-23.26 -79.26)"/><path id="path4575" class="cls-5" d="M274.13,195.56l6.4-3.95,43.16,24.29-6.4,3.23Z" transform="translate(-23.26 -79.26)"/><path id="path4573" class="cls-6" d="M280.53,119.36v72.25l43.16,24.29V150.52Z" transform="translate(-23.26 -79.26)"/><path id="path4571" class="cls-7" d="M274.13,124.43l6.4-5.07v72.25l-6.4,3.95Z" transform="translate(-23.26 -79.26)"/></g><g id="g4579"><path id="path4581" class="cls-2" d="M325.5,159.29v65.4l37.76,20.53V185.86Z" transform="translate(-23.26 -79.26)"/><path id="path4591" class="cls-4" d="M363.26,185.86l6.06-3.18v60.08l-6.06,2.46Z" transform="translate(-23.26 -79.26)"/><path id="path4583" class="cls-2" d="M325.5,159.29l6.17-3.87,37.65,27.26-6.06,3.18Z" transform="translate(-23.26 -79.26)"/><path id="path4589" class="cls-5" d="M325.5,224.69l6.17-3,37.65,21.06-6.06,2.46Z" transform="translate(-23.26 -79.26)"/><path id="path4587" class="cls-6" d="M331.67,155.42V221.7l37.65,21.06V182.68Z" transform="translate(-23.26 -79.26)"/><path id="path4585" class="cls-7" d="M325.5,159.29l6.17-3.87V221.7l-6.17,3Z" transform="translate(-23.26 -79.26)"/></g><g id="g4607"><path id="path4609" class="cls-2" d="M408.73,217.72v55.57l31,16.54V239.55Z" transform="translate(-23.26 -79.26)"/><path id="path4619" class="cls-4" d="M439.74,239.55l5.05-1.83v50.72l-5.05,1.39Z" transform="translate(-23.26 -79.26)"/><path id="path4611" class="cls-2" d="M408.73,217.72l5.3-2.24,30.76,22.24-5.05,1.83Z" transform="translate(-23.26 -79.26)"/><path id="path4617" class="cls-5" d="M408.73,273.29l5.3-1.69,30.76,16.84-5.05,1.39Z" transform="translate(-23.26 -79.26)"/><path id="path4615" class="cls-6" d="M414,215.48V271.6l30.76,16.84V237.72Z" transform="translate(-23.26 -79.26)"/><path id="path4613" class="cls-7" d="M408.73,217.72l5.3-2.24V271.6l-5.3,1.69Z" transform="translate(-23.26 -79.26)"/></g><g id="g4593"><path id="path4595" class="cls-2" d="M370.42,192v58.67l33.11,17.87V215.2Z" transform="translate(-23.26 -79.26)"/><path id="path4605" class="cls-4" d="M403.53,215.2l6.24-2.69v53.95l-6.24,2.08Z" transform="translate(-23.26 -79.26)"/><path id="path4597" class="cls-2" d="M370.42,192l6.44-3.26,32.91,23.77-6.24,2.69Z" transform="translate(-23.26 -79.26)"/><path id="path4603" class="cls-5" d="M370.42,250.67l6.44-2.51,32.91,18.3-6.24,2.08Z" transform="translate(-23.26 -79.26)"/><path id="path4601" class="cls-6" d="M376.86,188.74v59.42l32.91,18.3V212.51Z" transform="translate(-23.26 -79.26)"/><path id="path4599" class="cls-7" d="M370.42,192l6.44-3.26v59.42l-6.44,2.51Z" transform="translate(-23.26 -79.26)"/></g><g id="g4621"><path id="path4623" class="cls-2" d="M274.13,213.16V289.1l42.95,14.74V235Z" transform="translate(-23.26 -79.26)"/><path id="path4633" class="cls-4" d="M317.08,235l6.63-3.13v69.88l-6.63,2.11Z" transform="translate(-23.26 -79.26)"/><path id="path4625" class="cls-2" d="M274.13,213.16l6.63-3.81,42.95,22.5L317.08,235Z" transform="translate(-23.26 -79.26)"/><path id="path4631" class="cls-5" d="M274.13,289.1l6.63-2.57,42.95,15.2-6.63,2.11Z" transform="translate(-23.26 -79.26)"/><path id="path4629" class="cls-6" d="M280.76,209.35v77.18l42.95,15.2V231.85Z" transform="translate(-23.26 -79.26)"/><path id="path4627" class="cls-7" d="M274.13,213.16l6.63-3.81v77.18l-6.63,2.57Z" transform="translate(-23.26 -79.26)"/></g><g id="g4635"><path id="path4637" class="cls-2" d="M325.22,239v68.4l37.71,12.86v-62.1Z" transform="translate(-23.26 -79.26)"/><path id="path4647" class="cls-4" d="M362.93,258.19l6.27-2.38v62.88l-6.27,1.6Z" transform="translate(-23.26 -79.26)"/><path id="path4639" class="cls-2" d="M325.22,239l6.39-2.9,37.59,19.68-6.27,2.38Z" transform="translate(-23.26 -79.26)"/><path id="path4645" class="cls-5" d="M325.22,307.43l6.39-1.95,37.59,13.21-6.27,1.6Z" transform="translate(-23.26 -79.26)"/><path id="path4643" class="cls-6" d="M331.61,236.13v69.35l37.59,13.21V255.81Z" transform="translate(-23.26 -79.26)"/><path id="path4641" class="cls-7" d="M325.22,239l6.39-2.9v69.35l-6.39,1.95Z" transform="translate(-23.26 -79.26)"/></g><g id="g4663"><path id="path4665" class="cls-2" d="M408.34,281.71v52.65L439,345V297.24Z" transform="translate(-23.26 -79.26)"/><path id="path4675" class="cls-4" d="M439,297.24l5.71-1.49v48.18L439,345Z" transform="translate(-23.26 -79.26)"/><path id="path4667" class="cls-2" d="M408.34,281.71l6-1.82,30.38,15.86L439,297.24Z" transform="translate(-23.26 -79.26)"/><path id="path4673" class="cls-5" d="M408.34,334.36l6-1.24,30.38,10.81L439,345Z" transform="translate(-23.26 -79.26)"/><path id="path4671" class="cls-6" d="M414.31,279.89v53.23l30.38,10.81V295.75Z" transform="translate(-23.26 -79.26)"/><path id="path4669" class="cls-7" d="M408.34,281.71l6-1.82v53.23l-6,1.24Z" transform="translate(-23.26 -79.26)"/></g><g id="g4649"><path id="path4651" class="cls-2" d="M370.79,261.36v60.72L404,333.5V278.33Z" transform="translate(-23.26 -79.26)"/><path id="path4661" class="cls-4" d="M404,278.33l5.5-1.73v55.74L404,333.5Z" transform="translate(-23.26 -79.26)"/><path id="path4653" class="cls-2" d="M370.79,261.36l5.68-2.09,33,17.33-5.5,1.73Z" transform="translate(-23.26 -79.26)"/><path id="path4659" class="cls-5" d="M370.79,322.08l5.68-1.41,33,11.67L404,333.5Z" transform="translate(-23.26 -79.26)"/><path id="path4657" class="cls-6" d="M376.47,259.27v61.4l33,11.67V276.6Z" transform="translate(-23.26 -79.26)"/><path id="path4655" class="cls-7" d="M370.79,261.36l5.68-2.09v61.4l-5.68,1.41Z" transform="translate(-23.26 -79.26)"/></g><g id="g4679"><path id="path4681" class="cls-2" d="M274.13,303.05v76.28l42.55,6.26V316.36Z" transform="translate(-23.26 -79.26)"/><path id="path4691" class="cls-4" d="M316.68,316.36l6.64-1.92v70.24l-6.64.91Z" transform="translate(-23.26 -79.26)"/><path id="path4683" class="cls-2" d="M274.13,303.05l6.63-2.34,42.56,13.73-6.64,1.92Z" transform="translate(-23.26 -79.26)"/><path id="path4689" class="cls-5" d="M274.13,379.33l6.63-1.1,42.56,6.45-6.64.91Z" transform="translate(-23.26 -79.26)"/><path id="path4687" class="cls-6" d="M280.76,300.71v77.52l42.56,6.45V314.44Z" transform="translate(-23.26 -79.26)"/><path id="path4685" class="cls-7" d="M274.13,303.05l6.63-2.34v77.52l-6.63,1.1Z" transform="translate(-23.26 -79.26)"/></g><g id="g4693"><path id="path4695" class="cls-2" d="M325.3,318.87V387l38.09,5.59V330.8Z" transform="translate(-23.26 -79.26)"/><path id="path4705" class="cls-4" d="M363.39,330.8l6.31-1.48v62.57l-6.31.69Z" transform="translate(-23.26 -79.26)"/><path id="path4697" class="cls-2" d="M325.3,318.87l6.43-1.8,38,12.25-6.31,1.48Z" transform="translate(-23.26 -79.26)"/><path id="path4703" class="cls-5" d="M325.3,387l6.43-.84,38,5.74-6.31.69Z" transform="translate(-23.26 -79.26)"/><path id="path4701" class="cls-6" d="M331.73,317.07v69.08l38,5.74V329.32Z" transform="translate(-23.26 -79.26)"/><path id="path4699" class="cls-7" d="M325.3,318.87l6.43-1.8v69.08l-6.43.84Z" transform="translate(-23.26 -79.26)"/></g><g id="g4721"><path id="path4723" class="cls-2" d="M408.18,344.82v54.41l30.57,4.48V354.4Z" transform="translate(-23.26 -79.26)"/><path id="path4733" class="cls-4" d="M438.75,354.4l5.59-.91v49.8l-5.59.42Z" transform="translate(-23.26 -79.26)"/><path id="path4725" class="cls-2" d="M408.18,344.82l5.85-1.1,30.31,9.77-5.59.91Z" transform="translate(-23.26 -79.26)"/><path id="path4731" class="cls-5" d="M408.18,399.23l5.85-.52,30.31,4.58-5.59.42Z" transform="translate(-23.26 -79.26)"/><path id="path4729" class="cls-6" d="M414,343.72v55l30.31,4.58v-49.8Z" transform="translate(-23.26 -79.26)"/><path id="path4727" class="cls-7" d="M408.18,344.82l5.85-1.1v55l-5.85.52Z" transform="translate(-23.26 -79.26)"/></g><g id="g4707"><path id="path4709" class="cls-2" d="M370.79,333.08v60.56l32.14,4.72V343.15Z" transform="translate(-23.26 -79.26)"/><path id="path4719" class="cls-4" d="M402.93,343.15l6-1.17v55.83l-6,.55Z" transform="translate(-23.26 -79.26)"/><path id="path4711" class="cls-2" d="M370.79,333.08l6.23-1.41L409,342l-6,1.17Z" transform="translate(-23.26 -79.26)"/><path id="path4717" class="cls-5" d="M370.79,393.64,377,393l32,4.83-6,.55Z" transform="translate(-23.26 -79.26)"/><path id="path4715" class="cls-6" d="M377,331.67V393l32,4.83V342Z" transform="translate(-23.26 -79.26)"/><path id="path4713" class="cls-7" d="M370.79,333.08l6.23-1.41V393l-6.23.66Z" transform="translate(-23.26 -79.26)"/></g><g id="g4735"><path id="path4737" class="cls-2" d="M318.32,405v92.6l56.16-6.82v-80.1Z" transform="translate(-23.26 -79.26)"/><path id="path4745" class="cls-3" d="M318.32,497.58l12.15,1.36,55.78-7.17-11.77-1Z" transform="translate(-23.26 -79.26)"/><path id="path4747" class="cls-4" d="M374.48,410.66l11.77-.85v82l-11.77-1Z" transform="translate(-23.26 -79.26)"/><path id="path4739" class="cls-2" d="M318.32,405l12.15-1.13,55.78,6-11.77.85Z" transform="translate(-23.26 -79.26)"/><path id="path4743" class="cls-6" d="M330.47,403.85v95.09l55.78-7.17v-82Z" transform="translate(-23.26 -79.26)"/><path id="path4741" class="cls-7" d="M318.32,405l12.15-1.13v95.09l-12.15-1.36Z" transform="translate(-23.26 -79.26)"/></g></g></svg>