<?xml version="1.0" encoding="iso-8859-1"?>
<!-- Generator: Adobe Illustrator 16.0.0, SVG Export Plug-In . SVG Version: 6.00 Build 0)  -->
<!DOCTYPE svg PUBLIC "-//W3C//DTD SVG 1.1//EN" "http://www.w3.org/Graphics/SVG/1.1/DTD/svg11.dtd">
<svg xmlns="http://www.w3.org/2000/svg" xmlns:xlink="http://www.w3.org/1999/xlink" version="1.1" id="Capa_1" x="0px" y="0px" width="512px" height="512px" viewBox="0 0 46 46" style="enable-background:new 0 0 46 46;" xml:space="preserve">
<g>
	<g>
		<path d="M34.437,16.287v-4.84C34.437,5.128,29.308,0,22.998,0C16.691,0,11.56,5.128,11.56,11.447v4.84H3.458v8.014h39.084v-8.014    H34.437z M15.795,16.287v-4.84c0-3.976,3.229-7.213,7.203-7.213c3.978,0,7.204,3.237,7.204,7.213v4.84H15.795z M40.53,22.629    h-5.401v-4.672h5.401V22.629z" fill="#063978"/>
		<path d="M3.458,35.15h39.084v-8.015H3.458V35.15z M35.129,28.807h5.401v4.672h-5.401V28.807z" fill="#063978"/>
		<path d="M3.458,46h39.084v-8.014H3.458V46z M35.129,39.656h5.401v4.672h-5.401V39.656z" fill="#063978"/>
	</g>
</g>
<g>
</g>
<g>
</g>
<g>
</g>
<g>
</g>
<g>
</g>
<g>
</g>
<g>
</g>
<g>
</g>
<g>
</g>
<g>
</g>
<g>
</g>
<g>
</g>
<g>
</g>
<g>
</g>
<g>
</g>
</svg>
